<svg width="139" height="47" viewBox="0 0 139 47" fill="none" xmlns="http://www.w3.org/2000/svg">
<path d="M0.112 23.472C0.112 19.0347 1.072 15.088 2.992 11.632C4.912 8.13333 7.57867 5.424 10.992 3.504C14.448 1.54133 18.352 0.559998 22.704 0.559998C28.0373 0.559998 32.6027 1.968 36.4 4.784C40.1973 7.6 42.736 11.44 44.016 16.304H31.984C31.088 14.4267 29.808 12.9973 28.144 12.016C26.5227 11.0347 24.6667 10.544 22.576 10.544C19.2053 10.544 16.4747 11.7173 14.384 14.064C12.2933 16.4107 11.248 19.5467 11.248 23.472C11.248 27.3973 12.2933 30.5333 14.384 32.88C16.4747 35.2267 19.2053 36.4 22.576 36.4C24.6667 36.4 26.5227 35.9093 28.144 34.928C29.808 33.9467 31.088 32.5173 31.984 30.64H44.016C42.736 35.504 40.1973 39.344 36.4 42.16C32.6027 44.9333 28.0373 46.32 22.704 46.32C18.352 46.32 14.448 45.36 10.992 43.44C7.57867 41.4773 4.912 38.768 2.992 35.312C1.072 31.856 0.112 27.9093 0.112 23.472ZM73.63 46L64.286 29.04H61.662V46H50.718V1.072H69.086C72.6273 1.072 75.6353 1.69066 78.11 2.928C80.6273 4.16533 82.5047 5.872 83.742 8.048C84.9793 10.1813 85.598 12.5707 85.598 15.216C85.598 18.2027 84.7447 20.8693 83.038 23.216C81.374 25.5627 78.8993 27.2267 75.614 28.208L85.982 46H73.63ZM61.662 21.296H68.446C70.4513 21.296 71.9447 20.8053 72.926 19.824C73.95 18.8427 74.462 17.456 74.462 15.664C74.462 13.9573 73.95 12.6133 72.926 11.632C71.9447 10.6507 70.4513 10.16 68.446 10.16H61.662V21.296ZM103.412 9.84V18.928H118.068V27.376H103.412V37.232H119.988V46H92.468V1.072H119.988V9.84H103.412ZM132.213 46.512C130.293 46.512 128.714 45.9573 127.477 44.848C126.282 43.696 125.685 42.288 125.685 40.624C125.685 38.9173 126.282 37.488 127.477 36.336C128.714 35.184 130.293 34.608 132.213 34.608C134.09 34.608 135.626 35.184 136.821 36.336C138.058 37.488 138.677 38.9173 138.677 40.624C138.677 42.288 138.058 43.696 136.821 44.848C135.626 45.9573 134.09 46.512 132.213 46.512Z" fill="black"/>
</svg>
